<svg id="Layer_1" data-name="Layer 1" xmlns="http://www.w3.org/2000/svg" xmlns:xlink="http://www.w3.org/1999/xlink" viewBox="0 0 500.51 112.48"><defs><style>.cls-1{fill:none;}.cls-2{clip-path:url(#clip-path);}.cls-3{fill:#006eb7;}.cls-4{fill:#9d9d9c;}</style><clipPath id="clip-path" transform="translate(-3.08 -1.76)"><rect class="cls-1" width="506.67" height="116"/></clipPath></defs><g class="cls-2"><path class="cls-3" d="M3.08,5.76H18.86c1.23,0,2.44,0,3.63-.09s2.37-.12,3.55-.22,2.34-.11,3.62-.14,2.69-.06,4.17-.06c2,0,4,.06,6,.23a39.73,39.73,0,0,1,5.84.93A25.43,25.43,0,0,1,51,8.22a15.77,15.77,0,0,1,4.23,2.92A12.18,12.18,0,0,1,58,15.35a15.44,15.44,0,0,1,1,5.79,16.37,16.37,0,0,1-.78,5.14,13.8,13.8,0,0,1-2.15,4,14.77,14.77,0,0,1-3.11,3,18.87,18.87,0,0,1-3.74,2.09,20.42,20.42,0,0,1-4,1.2,17.43,17.43,0,0,1-3.67.4V37a33.71,33.71,0,0,1,5.81.51,30.84,30.84,0,0,1,5.67,1.61,25.11,25.11,0,0,1,5.13,2.7,19.33,19.33,0,0,1,4.16,3.86,16.78,16.78,0,0,1,2.8,5.09,19.12,19.12,0,0,1,1,6.32,19.74,19.74,0,0,1-2.44,10.1,17.45,17.45,0,0,1-6.68,6.41,28.51,28.51,0,0,1-6.45,2.6,49.81,49.81,0,0,1-7.58,1.4Q39,78,34.65,78c-.87,0-1.69,0-2.46,0s-1.48,0-2.15-.09-1.4-.08-2.07-.1-1.31,0-1.93-.1-1.23,0-1.83,0-1.2,0-1.76-.08a16.58,16.58,0,0,0-1.76-.09H3.08V76.2H9.23V7.09H3.08ZM25.42,36.52A19.63,19.63,0,0,0,31.78,36a14.58,14.58,0,0,0,5.44-2.71A13.17,13.17,0,0,0,41,28.17a19.79,19.79,0,0,0,1.42-7.75A17.78,17.78,0,0,0,41,13a9.49,9.49,0,0,0-3.81-4.22A14.74,14.74,0,0,0,31.78,7a28.74,28.74,0,0,0-6.36,0Zm0,39.77a33.91,33.91,0,0,0,9.69-.08,17.28,17.28,0,0,0,7.54-3.1,15.29,15.29,0,0,0,4.82-6.47,27.08,27.08,0,0,0,1.74-10.23,21.38,21.38,0,0,0-2-9.65,13.38,13.38,0,0,0-5.3-5.63,22.14,22.14,0,0,0-7.67-2.51,44.4,44.4,0,0,0-8.84-.36Zm64.19-.09h6.15v1.33h-27V76.2H75V3.09H68.79V1.76H89.61Zm60.9,0h6.15v1.33h-20.3c-.05-1.17-.1-2.17-.13-3s-.07-1.57-.07-2.23V71.17a16.73,16.73,0,0,1-2.58,2.33A26.9,26.9,0,0,1,130,75.78a22.7,22.7,0,0,1-4.39,1.81,17.69,17.69,0,0,1-4.94.75c-4.78,0-8.42-1.32-10.9-4s-3.74-6.66-3.76-12V30.47H99.86V29.13h20.81v32a38,38,0,0,0,.18,4,18.35,18.35,0,0,0,.85,4.23,8.45,8.45,0,0,0,1.15,2.42,5.31,5.31,0,0,0,1.91,1.74,5.84,5.84,0,0,0,2.79.65,7.43,7.43,0,0,0,2.79-.6,10.71,10.71,0,0,0,2.43-1.45c.72-.58,1.35-1.13,1.88-1.64a12.17,12.17,0,0,0,1.2-1.33V30.47h-5.54V29.13h20.2Zm52.91-9.65a15.29,15.29,0,0,1-2.08,4,19.62,19.62,0,0,1-9.32,7,23.45,23.45,0,0,1-7.57,1.23,20.53,20.53,0,0,1-6.39-1A18.8,18.8,0,0,1,172.79,75a20.77,20.77,0,0,1-4.13-4.14,24.28,24.28,0,0,1-3-5.13,29.3,29.3,0,0,1-1.77-5.78,31.93,31.93,0,0,1-.59-6.1,29.34,29.34,0,0,1,1.77-10.18,25.05,25.05,0,0,1,4.9-8.27,21.58,21.58,0,0,1,7.4-5.52,22.38,22.38,0,0,1,9.31-2,26.2,26.2,0,0,1,5.76.64A20.05,20.05,0,0,1,198,30.67,14.83,14.83,0,0,1,200.91,33a10.34,10.34,0,0,1,2,3.15,10.79,10.79,0,0,1,.74,4,8.61,8.61,0,0,1-1.06,4.27,8.93,8.93,0,0,1-2.87,3.07,17.15,17.15,0,0,1-4.27,2.09,33.4,33.4,0,0,1-5.17,1.26c-1.82.31-3.7.56-5.63.72s-3.81.27-5.71.38a33.35,33.35,0,0,0,.36,4.06,28.49,28.49,0,0,0,1,4.27,22.37,22.37,0,0,0,1.65,4.07,15.62,15.62,0,0,0,2.33,3.42,10.67,10.67,0,0,0,3.17,2.36,10.16,10.16,0,0,0,4.24.89,14.93,14.93,0,0,0,4-.55,11.87,11.87,0,0,0,3.11-1.4,14.37,14.37,0,0,0,2.21-1.77,8.7,8.7,0,0,0,1.28-1.51ZM191.21,38.36a15.32,15.32,0,0,0-.69-4.79,8.27,8.27,0,0,0-1.75-3.17,3.14,3.14,0,0,0-2.27-1.16,3.64,3.64,0,0,0-2.5,1.24,13.41,13.41,0,0,0-2.42,3.88,28.65,28.65,0,0,0-1.91,6.69,57.76,57.76,0,0,0-.86,9.62A20.92,20.92,0,0,0,186.09,49,7.9,7.9,0,0,0,190,45.18a15.78,15.78,0,0,0,1.19-6.82m24.69,4.72a46.89,46.89,0,0,1,1.4-11.79,36.89,36.89,0,0,1,4-9.71A33.34,33.34,0,0,1,227.48,14,36.75,36.75,0,0,1,240,6.52,45.43,45.43,0,0,1,255.37,4,42.58,42.58,0,0,1,271.5,6.92,32.32,32.32,0,0,1,283.26,15a34.24,34.24,0,0,1,7.16,12.06,45.33,45.33,0,0,1,2.37,15,41.35,41.35,0,0,1-1.52,11.5A33,33,0,0,1,280.6,70a36.91,36.91,0,0,1-8.15,5.09,43.08,43.08,0,0,1-9.34,3,49.49,49.49,0,0,1-10,1A43.61,43.61,0,0,1,238,76.58a34.48,34.48,0,0,1-11.8-7.25,31.23,31.23,0,0,1-7.58-11.28,40.25,40.25,0,0,1-2.67-15m58.75.3c0-3.53-.15-6.9-.42-10.13a69.14,69.14,0,0,0-1.33-9.06,40.59,40.59,0,0,0-2.46-7.67,21.82,21.82,0,0,0-3.78-5.93,15.39,15.39,0,0,0-5.3-3.79,16.94,16.94,0,0,0-6.91-1.35,17.2,17.2,0,0,0-8.14,1.82,17,17,0,0,0-5.6,4.84,26.66,26.66,0,0,0-3.66,7,45.13,45.13,0,0,0-2,8.17c-.29,1.9-.53,3.78-.7,5.65s-.28,3.71-.34,5.47-.08,3.42-.08,5a77.84,77.84,0,0,0,1.17,14.2,37.36,37.36,0,0,0,3.64,10.82A18.14,18.14,0,0,0,245,75.34a16.94,16.94,0,0,0,9.11,2.39,19.54,19.54,0,0,0,7.93-1.5,16.15,16.15,0,0,0,5.6-4,20.7,20.7,0,0,0,3.69-6A35.7,35.7,0,0,0,273.41,59a70.38,70.38,0,0,0,1-7.83c.19-2.68.28-5.26.28-7.76m55.05,28.3a12.46,12.46,0,0,0,4.58-.85,13.92,13.92,0,0,0,3.43-1.92A17.33,17.33,0,0,0,340,66.73,15.72,15.72,0,0,0,341.29,65l1.23.62a14.17,14.17,0,0,1-1.23,2.68,20.2,20.2,0,0,1-2.05,2.91A22,22,0,0,1,336.36,74a21.07,21.07,0,0,1-3.7,2.41,20.47,20.47,0,0,1-4.58,1.67,24.6,24.6,0,0,1-5.56.64,20.41,20.41,0,0,1-5.41-.75A21.38,21.38,0,0,1,312,75.82a22.85,22.85,0,0,1-4.53-3.63,23.88,23.88,0,0,1-5.06-7.91,29.07,29.07,0,0,1-1.9-10.74,28.53,28.53,0,0,1,2.06-11.1,22.76,22.76,0,0,1,5.52-8.08A23.34,23.34,0,0,1,316,29.51a27.42,27.42,0,0,1,9.4-1.6,23.92,23.92,0,0,1,6.53.8A13.75,13.75,0,0,1,336.67,31a10.17,10.17,0,0,1,2.91,3.35,8.53,8.53,0,0,1,1,4,7.29,7.29,0,0,1-.75,3.27A5.93,5.93,0,0,1,337.77,44a6.08,6.08,0,0,1-6.22,0,6.17,6.17,0,0,1-3-5.31,5.92,5.92,0,0,1,.76-2.9,5.75,5.75,0,0,1,2-2.12,5.59,5.59,0,0,1,2.77-.84,6.89,6.89,0,0,1,3.08.63,9.59,9.59,0,0,0-1.92-1.59,12.59,12.59,0,0,0-2.73-1.33,9.43,9.43,0,0,0-3.15-.57,9.54,9.54,0,0,0-4.34,1,11.25,11.25,0,0,0-3.41,2.67,17.67,17.67,0,0,0-2.5,3.81,26.54,26.54,0,0,0-1.75,4.48,33.24,33.24,0,0,0-1,4.64,31,31,0,0,0-.32,4.21,33.71,33.71,0,0,0,.32,4.43,32.44,32.44,0,0,0,1,4.67,26.52,26.52,0,0,0,1.75,4.43,17,17,0,0,0,2.53,3.78,11.37,11.37,0,0,0,3.53,2.62,10.09,10.09,0,0,0,4.5,1m59.57-5.13a14.94,14.94,0,0,1-2.07,4,20.14,20.14,0,0,1-3.77,4,19.69,19.69,0,0,1-5.55,3.08,22.66,22.66,0,0,1-7.57,1.23,19.71,19.71,0,0,1-6.4-1A18.17,18.17,0,0,1,358.66,75a20.3,20.3,0,0,1-4.14-4.14,23.85,23.85,0,0,1-3-5.13,30,30,0,0,1-1.78-5.78,31.84,31.84,0,0,1-.58-6.1A29.57,29.57,0,0,1,351,43.66a25.72,25.72,0,0,1,4.9-8.27,21.58,21.58,0,0,1,7.4-5.52,22.23,22.23,0,0,1,9.31-2,25.61,25.61,0,0,1,5.76.64,19.15,19.15,0,0,1,5.52,2.12A13.29,13.29,0,0,1,386.76,33a10.18,10.18,0,0,1,2,3.15,10.59,10.59,0,0,1,.74,4,8.5,8.5,0,0,1-1.06,4.27,9.22,9.22,0,0,1-2.87,3.07,17.22,17.22,0,0,1-4.28,2.09,33.14,33.14,0,0,1-5.15,1.26c-1.83.31-3.71.56-5.64.72s-3.81.27-5.72.38a35.58,35.58,0,0,0,.37,4.06,27.31,27.31,0,0,0,1,4.27,23.11,23.11,0,0,0,1.65,4.07,16.71,16.71,0,0,0,2.32,3.42,10.19,10.19,0,0,0,3.19,2.36,9.79,9.79,0,0,0,4.24.89,14.07,14.07,0,0,0,3.95-.55,11.65,11.65,0,0,0,3.12-1.4,14.88,14.88,0,0,0,2.2-1.77,8.83,8.83,0,0,0,1.29-1.51Zm-12.2-28.19a15.3,15.3,0,0,0-.7-4.79,8.4,8.4,0,0,0-1.74-3.17,3.23,3.23,0,0,0-2.27-1.16,3.54,3.54,0,0,0-2.5,1.24,13.33,13.33,0,0,0-2.43,3.88,30.91,30.91,0,0,0-1.91,6.69,60,60,0,0,0-.86,9.62A20.81,20.81,0,0,0,371.94,49a7.92,7.92,0,0,0,3.94-3.86,15.93,15.93,0,0,0,1.19-6.82m28.2-4.3a4.69,4.69,0,0,1,1.21-.33,6.23,6.23,0,0,1,1-.08,6.19,6.19,0,0,1,5.22,2.94,5.71,5.71,0,0,1,.83,3,5.84,5.84,0,0,1-.83,3,6.35,6.35,0,0,1-2.19,2.18,5.73,5.73,0,0,1-3,.84,5.63,5.63,0,0,1-3-.84,6.07,6.07,0,0,1-2.12-2.18,5.93,5.93,0,0,1-.82-3,8.71,8.71,0,0,1,.78-3.45,12.43,12.43,0,0,1,2.7-3.83,13.14,13.14,0,0,1,3-2.23,16.81,16.81,0,0,1,4.27-1.58,24.57,24.57,0,0,1,5.71-.59,23.82,23.82,0,0,1,7.52,1,13.29,13.29,0,0,1,5.5,3.26,14.54,14.54,0,0,1,3.43,5.93,29.87,29.87,0,0,1,1.19,8.94V69.33c0,1,0,1.79.08,2.47a9.19,9.19,0,0,0,.33,1.73,2,2,0,0,0,.6,1.06,1.67,1.67,0,0,0,1.14.37,2.24,2.24,0,0,0,1.54-.6,3.57,3.57,0,0,0,.92-1.45l1.34.51a3.26,3.26,0,0,1-.59,1.39,7.52,7.52,0,0,1-1.67,1.69,10,10,0,0,1-2.92,1.58,13,13,0,0,1-4.46.68,12.65,12.65,0,0,1-4.48-.74,10.1,10.1,0,0,1-3.15-1.81,10.74,10.74,0,0,1-2-2.38,12.27,12.27,0,0,1-3,2.51,16.54,16.54,0,0,1-4,1.74,17,17,0,0,1-4.65.68,23.07,23.07,0,0,1-5.89-.72,14.9,14.9,0,0,1-5-2.26,10.83,10.83,0,0,1-3.43-4A12.08,12.08,0,0,1,395.12,66a10.17,10.17,0,0,1,2.08-6.35,16.13,16.13,0,0,1,5.61-4.52,35.9,35.9,0,0,1,8.23-2.9,76.94,76.94,0,0,1,10-1.6V39.49a16,16,0,0,0-.62-4.76,7,7,0,0,0-1.53-2.92,5.78,5.78,0,0,0-2.36-1.43,8.61,8.61,0,0,0-2.67-.43,10.58,10.58,0,0,0-3.27.55,12.17,12.17,0,0,0-3,1.44,11.29,11.29,0,0,0-2.37,2.12m10.45,41.72a5.73,5.73,0,0,0,2.3-.58,12.39,12.39,0,0,0,2.28-1.33,5.81,5.81,0,0,0,1.47-1.48,20.48,20.48,0,0,1-.5-3,37.82,37.82,0,0,1-.21-4.33v-13A15.08,15.08,0,0,0,414.84,55a12.48,12.48,0,0,0-3.73,4.89,16.21,16.21,0,0,0-1.23,6.41,17,17,0,0,0,.37,3.55,13.06,13.06,0,0,0,1.07,3,5.56,5.56,0,0,0,1.74,2.14,4.48,4.48,0,0,0,2.66.84m37.22-45.31H446.8V29.13h20.29c0,1.16,0,2.18.07,3s.11,1.59.14,2.24c0,.37,0,.62,0,.79v.34a31.3,31.3,0,0,1,2.63-2.33,24.65,24.65,0,0,1,3.62-2.38A21.84,21.84,0,0,1,477.89,29a17.55,17.55,0,0,1,4.89-.67c4.78,0,8.42,1.33,10.9,4s3.76,6.67,3.76,12V76.2h6.15v1.33H477.25V76.2h5.53V45.64a36,36,0,0,0-.5-6.7,7.79,7.79,0,0,0-2.09-4.3,6.35,6.35,0,0,0-4.59-1.51,7.54,7.54,0,0,0-2.74.52,11.61,11.61,0,0,0-2.29,1.12,14.9,14.9,0,0,0-1.79,1.46,10.47,10.47,0,0,0-1.18,1.31V76.2h5.55v1.33H446.8V76.2h6.14Z" transform="translate(-3.08 -1.76)"/><path class="cls-4" d="M135.4,95.36a6.27,6.27,0,0,0-5.05,2,8.51,8.51,0,0,0-1.74,5.69,11.19,11.19,0,0,0,.42,3.16,6.94,6.94,0,0,0,1.23,2.46,5.53,5.53,0,0,0,2,1.59,6.8,6.8,0,0,0,2.85.57c.68,0,1.26,0,1.76-.08a7.33,7.33,0,0,0,1.17-.2v-7.69H142v10.28a19,19,0,0,1-2.71.68,23.32,23.32,0,0,1-4.42.37,11.74,11.74,0,0,1-4.23-.74,8.87,8.87,0,0,1-3.25-2.16,9.63,9.63,0,0,1-2.08-3.49,13.85,13.85,0,0,1-.75-4.75,13,13,0,0,1,.82-4.75,10.22,10.22,0,0,1,2.24-3.5,9.44,9.44,0,0,1,3.33-2.18,11.11,11.11,0,0,1,4.08-.74,15.91,15.91,0,0,1,2.63.2,17.25,17.25,0,0,1,2,.45,8.07,8.07,0,0,1,1.38.52l.75.4-1.17,3.18a9.16,9.16,0,0,0-2.3-.94,10.43,10.43,0,0,0-2.88-.38" transform="translate(-3.08 -1.76)"/><path class="cls-4" d="M188.47,113.81c-.28-.85-.58-1.68-.89-2.5s-.61-1.67-.9-2.53h-9c-.29.86-.58,1.71-.88,2.54s-.6,1.66-.89,2.49h-4c.8-2.29,1.56-4.39,2.28-6.33s1.43-3.76,2.11-5.49,1.37-3.37,2.06-4.94,1.37-3.1,2.09-4.63h3.71c.72,1.53,1.43,3.07,2.1,4.63s1.37,3.21,2.05,4.94,1.4,3.56,2.13,5.49,1.5,4,2.3,6.33Zm-6.31-17.26c-.47,1.09-1,2.43-1.62,4s-1.23,3.26-1.89,5.09h7c-.66-1.83-1.29-3.54-1.91-5.12s-1.15-2.9-1.61-4" transform="translate(-3.08 -1.76)"/><path class="cls-4" d="M227.8,92.42c.45.78,1,1.74,1.51,2.87s1.12,2.32,1.7,3.57,1.15,2.51,1.71,3.79,1.09,2.47,1.56,3.56c.47-1.09,1-2.27,1.54-3.56s1.13-2.54,1.7-3.79,1.14-2.44,1.7-3.57,1.06-2.09,1.51-2.87h3.51c.19,1.57.37,3.23.53,5s.32,3.56.45,5.4.27,3.7.38,5.56.22,3.68.3,5.45h-3.83q-.12-3.74-.3-7.69c-.11-2.62-.28-5.18-.51-7.65-.23.47-.5,1-.81,1.7s-.63,1.38-1,2.15-.7,1.56-1.06,2.38-.71,1.63-1.05,2.39-.65,1.5-.94,2.17l-.74,1.71h-2.9c-.2-.48-.45-1-.74-1.73s-.6-1.41-.94-2.17l-1.05-2.4c-.36-.82-.72-1.61-1.07-2.37s-.68-1.48-1-2.14-.58-1.24-.8-1.69c-.24,2.47-.41,5-.52,7.65s-.22,5.2-.3,7.69h-3.83c.09-1.77.18-3.61.3-5.5s.24-3.77.38-5.62.28-3.68.46-5.42.34-3.37.52-4.85Z" transform="translate(-3.08 -1.76)"/><rect class="cls-4" x="275.1" y="90.66" width="3.89" height="21.39"/><path class="cls-4" d="M329.37,113.81c-.7-1.17-1.49-2.44-2.35-3.78s-1.76-2.71-2.68-4.08-1.87-2.69-2.83-4-1.86-2.44-2.73-3.46v15.3H315V92.42h3.18c.82.86,1.7,1.89,2.65,3.07s1.9,2.42,2.86,3.69,1.88,2.56,2.77,3.84,1.7,2.48,2.39,3.6V92.42h3.86v21.39Z" transform="translate(-3.08 -1.76)"/><path class="cls-4" d="M375.57,95.36a6.29,6.29,0,0,0-5.06,2,8.56,8.56,0,0,0-1.73,5.69,11.2,11.2,0,0,0,.41,3.16,7.11,7.11,0,0,0,1.23,2.46,5.7,5.7,0,0,0,2,1.59,6.85,6.85,0,0,0,2.86.57,17.56,17.56,0,0,0,1.76-.08,7.33,7.33,0,0,0,1.17-.2v-7.69h3.88v10.28a18.68,18.68,0,0,1-2.71.68,23.21,23.21,0,0,1-4.41.37,11.7,11.7,0,0,1-4.23-.74,8.82,8.82,0,0,1-3.26-2.16,9.75,9.75,0,0,1-2.07-3.49,13.85,13.85,0,0,1-.75-4.75,12.75,12.75,0,0,1,.82-4.75,10.2,10.2,0,0,1,2.23-3.5,9.66,9.66,0,0,1,3.34-2.18,11.07,11.07,0,0,1,4.08-.74,15.91,15.91,0,0,1,2.63.2,18.28,18.28,0,0,1,2,.45,8.41,8.41,0,0,1,1.38.52l.75.4-1.17,3.18a9.32,9.32,0,0,0-2.3-.94,10.48,10.48,0,0,0-2.88-.38" transform="translate(-3.08 -1.76)"/></g></svg>